Coordinates
version=1
nRows=26
nColumns=24
inDegrees=yes

Units are S.I. units (second, meters, Newtons, ...)
Angles are in degrees.

endheader
time	pelvis_tilt	pelvis_list	pelvis_rotation	pelvis_tx	pelvis_ty	pelvis_tz	hip_flexion_r	hip_adduction_r	hip_rotation_r	knee_angle_r	ankle_angle_r	subtalar_angle_r	mtp_angle_r	hip_flexion_l	hip_adduction_l	hip_rotation_l	knee_angle_l	ankle_angle_l	subtalar_angle_l	mtp_angle_l	lumbar_extension	lumbar_bending	lumbar_rotation
      1.12883333	     -1.91269334	     -0.78937992	     -3.31045195	     -0.03889416	      0.97400580	      0.32698849	    -18.11045374	      2.58974304	     -2.07677460	     -1.58649111	     16.73017414	     -2.15696525	      2.74881897	     24.11429855	      0.26167535	     -3.27669535	      5.84436217	     -3.69880077	     -6.96445511	      1.73826952	    -11.72689269	      6.18502093	      8.67919101
      1.13300000	     -1.89428170	     -0.63674434	     -3.27979200	     -0.03292966	      0.97320442	      0.32659479	    -18.23511785	      2.36795673	     -2.31590573	     -2.13348098	     16.97714722	     -1.80253308	      2.82099708	     24.11640082	      0.51016694	     -3.14845822	      5.66515575	     -3.87914511	     -7.32431556	      1.77256220	    -11.71434562	      5.98320909	      8.67011660
      1.13716667	     -1.87347448	     -0.46499448	     -3.24697712	     -0.02693149	      0.97244646	      0.32618654	    -18.34265331	      2.12351838	     -2.55515907	     -2.72331242	     17.21457831	     -1.45391203	      2.90093997	     24.12159772	      0.77673150	     -2.98648116	      5.40752562	     -4.12376974	     -7.76251004	      1.81991380	    -11.69924322	      5.75916007	      8.65024121
      1.14133333	     -1.86259594	     -0.27906933	     -3.21008040	     -0.02090928	      0.97172054	      0.32575515	    -18.41517627	      1.86226237	     -2.80513986	     -3.36321411	     17.43013472	     -1.10759181	      2.99468034	     24.14660327	      1.05639146	     -2.78682777	      5.06961426	     -4.42573446	     -8.27290256	      1.88466663	    -11.67509856	      5.52332753	      8.62470853
      1.14550000	     -1.84333337	     -0.07567793	     -3.17077936	     -0.01484689	      0.97104959	      0.32532034	    -18.48388576	      1.58211071	     -3.04070182	     -4.03339375	     17.62889086	     -0.79131273	      3.09680361	     24.16986106	      1.35301326	     -2.58082737	      4.66124535	     -4.80139367	     -8.84401859	      1.95906820	    -11.64645420	      5.25798771	      8.58731612
      1.14966667	     -1.83753439	      0.14165271	     -3.12889360	     -0.00876348	      0.97040646	      0.32486450	    -18.51352708	      1.28549206	     -3.27744847	     -4.75468261	     17.80354646	     -0.48354036	      3.21397892	     24.21689191	      1.66277770	     -2.34774920	      4.18599737	     -5.23957312	     -9.47923399	      2.04504995	    -11.60521114	      4.98017599	      8.54360161
      1.15383333	     -1.82889845	      0.37157903	     -3.07976530	     -0.00265263	      0.96980782	      0.32438689	    -18.53116708	      0.97521432	     -3.50976188	     -5.50882876	     17.94484853	     -0.19626121	      3.34831911	     24.27009709	      1.98722891	     -2.09365244	      3.64992709	     -5.73648871	    -10.16784814	      2.14238281	    -11.57015355	      4.68991128	      8.48787779
      1.15800000	     -1.82413751	      0.61481409	     -3.02990246	      0.00348162	      0.96924847	      0.32389549	    -18.52476239	      0.64910338	     -3.73796760	     -6.30363948	     18.05924577	      0.07306256	      3.50399104	     24.33657459	      2.32439138	     -1.83677260	      3.05934402	     -6.29591320	    -10.90470448	      2.24735451	    -11.51719573	      4.38289015	      8.42671155
      1.16216667	     -1.81466466	      0.86728101	     -2.97163903	      0.00963545	      0.96873650	      0.32338149	    -18.50190213	      0.31282601	     -3.97357723	     -7.14495397	     18.11734585	      0.31387991	      3.71540174	     24.40246599	      2.67399166	     -1.53886356	      2.42744130	     -6.86722769	    -11.68157863	      2.38037615	    -11.48114738	      4.06088779	      8.35978155
      1.16633333	     -1.83322183	      1.12534024	     -2.91903195	      0.01580331	      0.96824082	      0.32286375	    -18.43553372	     -0.02935940	     -4.15979736	     -8.01034359	     18.15950137	      0.50952122	      3.92445642	     24.52137710	      3.02539644	     -1.31143293	      1.72649827	     -7.52113491	    -12.44936308	      2.48977298	    -11.40231762	      3.73731857	      8.28244650
      1.17050000	     -1.83268909	      1.39774451	     -2.85199965	      0.02199627	      0.96780798	      0.32231594	    -18.36849180	     -0.38631799	     -4.37221566	     -8.92164295	     18.13201501	      0.69037881	      4.20209557	     24.61513817	      3.39757291	     -1.01674827	      1.01030181	     -8.15720121	    -13.26103735	      2.61473687	    -11.35126858	      3.39356792	      8.19866565
      1.17466667	     -1.85996872	      1.66880724	     -2.79435269	      0.02819536	      0.96739842	      0.32178263	    -18.26021440	     -0.74010132	     -4.51939194	     -9.84937353	     18.07989057	      0.79702616	      4.45358476	     24.76577103	      3.76105206	     -0.82610231	      0.22389219	     -8.84932600	    -14.00887281	      2.70153123	    -11.25650614	      3.05710191	      8.10772491
      1.17883333	     -1.88084943	      1.94913138	     -2.72562021	      0.03439787	      0.96703418	      0.32120482	    -18.13154416	     -1.10533782	     -4.68387082	    -10.83249160	     17.95785989	      0.89665477	      4.75442256	     24.90651786	      4.14095689	     -0.57585374	     -0.57356561	     -9.50970407	    -14.79284220	      2.78307078	    -11.18401483	      2.71090176	      8.01232827
      1.18300000	     -1.88634803	      2.23282492	     -2.64802733	      0.04062138	      0.96673184	      0.32060410	    -18.00081471	     -1.47411480	     -4.85977077	    -11.85145374	     17.76578832	      0.97417116	      5.20423809	     25.03282621	      4.53032824	     -0.30606608	     -1.39531627	    -10.11128611	    -15.60823041	      2.87466012	    -11.11830164	      2.34821347	      7.91901351
      1.18716667	     -1.92520316	      2.50924137	     -2.58636148	      0.04683067	      0.96645582	      0.32003422	    -17.81252146	     -1.83224086	     -4.95123334	    -12.90239398	     17.53464296	      0.93667818	      5.56146246	     25.21674650	      4.89795744	     -0.17461312	     -2.26380360	    -10.75909272	    -16.24221286	      2.91700700	    -11.01719232	      2.00925223	      7.80585706
      1.19133333	     -1.88814364	      2.80072172	     -2.50209125	      0.05305677	      0.96630841	      0.31942051	    -17.70179881	     -2.20326153	     -5.07326951	    -13.94685701	     17.13437603	      0.76462519	     11.31943197	     25.31058716	      5.29833150	      0.03886777	     -3.13675124	    -11.27672414	    -16.94792535	      3.36848819	    -11.02288621	      1.64204952	      7.67659063
      1.19550000	     -1.94292169	      3.07762459	     -2.42647336	      0.05929224	      0.96610384	      0.31880649	    -17.45345301	     -2.56142124	     -5.17215299	    -15.06933146	     16.72671343	      0.73339022	     11.40684862	     25.51903540	      5.67286486	      0.17439884	     -4.05643613	    -11.74376102	    -17.52330303	      3.33620036	    -10.89374970	      1.28516670	      7.59637066
      1.19966667	     -1.96627606	      3.36037385	     -2.36238244	      0.06550070	      0.96598984	      0.31819333	    -17.20213431	     -2.92983333	     -5.23835435	    -16.25441208	     16.28740546	      0.60024496	     11.53766891	     25.68138315	      6.05058536	      0.29894175	     -4.95519219	    -12.17371209	    -18.05103567	      3.29074184	    -10.81620599	      0.93529374	      7.47988635
      1.20383333	     -1.98048879	      3.64235377	     -2.29205440	      0.07171347	      0.96592950	      0.31756075	    -16.93878154	     -3.29680052	     -5.30608490	    -17.47273047	     15.77565155	      0.45437815	     11.73703179	     25.83480951	      6.43277383	      0.42665792	     -5.87215703	    -12.50901839	    -18.57887766	      3.22602574	    -10.75100079	      0.58596152	      7.36824241
      1.20800000	     -1.98537641	      3.92698691	     -2.22634316	      0.07791839	      0.96593314	      0.31692269	    -16.65514129	     -3.66888034	     -5.36041547	    -18.73438614	     15.19207462	      0.27466342	     11.99212133	     25.97140073	      6.81695078	      0.53491721	     -6.78608459	    -12.75368752	    -19.03956656	      3.14514830	    -10.69735261	      0.22990496	      7.25448352
      1.21216667	     -1.93495019	      4.21115103	     -2.15525605	      0.08410801	      0.96605037	      0.31625545	    -16.41298136	     -4.04458095	     -5.42990611	    -20.00282059	     14.46969467	      0.01484588	     17.12769949	     26.04639543	      7.21239045	      0.65846045	     -7.71358847	    -12.85924049	    -19.50783283	      1.61448529	    -10.72545803	     -0.12414811	      7.12941727
      1.21633333	     -1.93859288	      4.48584456	     -2.09600045	      0.09029337	      0.96615607	      0.31561122	    -16.06784025	     -4.41042880	     -5.45883018	    -21.34801944	     13.69626130	     -0.22827463	     17.18670632	     26.17114287	      7.58377332	      0.71425424	     -8.63023501	    -12.91068061	    -19.80922458	      1.60012929	    -10.66989778	     -0.46744216	      7.02933746
      1.22050000	     -1.92676142	      4.75685114	     -2.04394962	      0.09643582	      0.96631341	      0.31494940	    -15.69770783	     -4.77987238	     -5.48035079	    -22.75390441	     12.89061455	     -0.47877310	     17.32703706	     26.27417968	      7.95458023	      0.77535230	     -9.54532290	    -12.87907351	    -20.13234980	      1.56173008	    -10.64279049	     -0.79789745	      6.92170845
      1.22466667	     -1.88885008	      5.02107882	     -1.99882170	      0.10257229	      0.96655934	      0.31430533	    -15.33418037	     -5.14278094	     -5.48140983	    -24.16388575	     11.91740441	     -0.83509293	     20.87203113	     26.33588559	      8.31819984	      0.82289781	    -10.44907711	    -12.71192677	    -20.39298050	      0.55251179	    -10.65403189	     -1.13529218	      6.85710926
      1.22883333	     -1.80827708	      5.31175810	     -1.95201909	      0.10869461	      0.96688467	      0.31364095	    -14.97929250	     -5.54315165	     -5.51914682	    -25.64052358	     10.96448587	     -1.08623380	     20.89638450	     26.33044584	      8.71468497	      0.87255105	    -11.31197810	    -12.50009448	    -20.63618387	      0.54930622	    -10.72112522	     -1.50263009	      6.71526332
      1.23300000	     -1.78764694	      5.57915287	     -1.92343982	      0.11475818	      0.96716866	      0.31298121	    -14.49835338	     -5.92858688	     -5.52587812	    -27.20483922	      9.94614549	     -1.39743890	     21.00551543	     26.37698892	      9.07718285	      0.89034221	    -12.14984572	    -12.25100481	    -20.83724863	      0.52009526	    -10.70009783	     -1.80494998	      6.59203340
